PathFileType	4	(X/Y/Z)	OpenSim_Sub09_EMGStiffKnee_Gyro.trc
DataRate	CameraRate	NumFrames	NumMarkers	Units	OrigDataRate	OrigDataStartFrame	OrigNumFrames
100	100	24	8	m	100	6637	7584
Frame#	Time	torso_imu_offset_imu	pelvis_imu_offset_imu	tibia_r_imu_offset_imu	femur_r_imu_offset_imu	tibia_l_imu_offset_imu	femur_l_imu_offset_imu	toes_r_imu_offset_imu	toes_l_imu_offset_imu
				X1	Y1	Z1	X2	Y2	Z2	X3	Y3	Z3	X4	Y4	Z4	X5	Y5	Z5	X6	Y6	Z6	X7	Y7	Z7	X8		Y8	Z8	

6637	66.36000000	-0.10545160	-0.43883146	-0.24221398	-0.32089226	-0.00702168	0.44252620	-0.87835338	0.45816897	3.29251455	1.19649854	0.27334230	1.14043904	0.34533709	-0.16223517	0.78939691	-0.20359741	-0.20125444	0.56659801	0.32167183	3.36967900	1.22031689	-0.20630025	-0.04355270	0.17511434
6638	66.37000000	-0.09463051	-0.45970465	-0.23105031	-0.40894164	0.07103913	0.38113696	-1.12213289	0.64239535	3.38175510	1.13844731	0.32093442	1.13459152	0.22178174	-0.16192352	0.73475840	-0.28937527	-0.21821805	0.69693686	0.33094547	3.57334020	1.34207338	-0.21407958	-0.03123536	0.18026895
6639	66.38000000	-0.10105386	-0.46800630	-0.21917587	-0.47209594	0.16981744	0.32198888	-1.22931144	0.75644001	3.43657280	1.06034754	0.34846472	1.17191427	0.08138353	-0.15219350	0.70495400	-0.36434971	-0.20537095	0.79121540	0.31488160	3.76671162	1.40624558	-0.21036107	-0.01390705	0.18255632
6640	66.39000000	-0.11539725	-0.47769038	-0.19862264	-0.51441698	0.27257518	0.27115407	-1.19073942	0.81785169	3.51418518	0.95738732	0.35029379	1.20895626	-0.00424015	-0.14946761	0.68598702	-0.42104809	-0.18115321	0.84456526	0.31354466	3.93436626	1.43227717	-0.20871292	0.00294197	0.17980562
6641	66.40000000	-0.12417503	-0.48884302	-0.16992086	-0.54279555	0.36495862	0.23451527	-1.08048183	0.84676297	3.61758056	0.87291029	0.35298747	1.19206657	-0.04081695	-0.16645718	0.67496388	-0.44745940	-0.14618172	0.85897441	0.31019543	4.09010877	1.42352585	-0.21595777	0.01041762	0.17416657
6642	66.41000000	-0.16055221	-0.50155308	-0.13466852	-0.54305129	0.43504945	0.20948310	-0.94811049	0.88075921	3.74210076	0.80923829	0.34050893	1.17650422	-0.03479844	-0.14159647	0.65225388	-0.43672912	-0.11784760	0.84257105	0.33781659	4.19280277	1.37645105	-0.20456357	0.03245406	0.16922027
6643	66.42000000	-0.15844362	-0.51703383	-0.12195736	-0.51325811	0.47684105	0.19989999	-0.84731332	0.94040478	3.87530858	0.74612564	0.31835923	1.17444798	-0.03637728	-0.12305368	0.64980951	-0.40217308	-0.09209984	0.80646123	0.40677534	4.23476584	1.31625371	-0.20593252	0.04944178	0.16566288
6644	66.43000000	-0.14389674	-0.53864221	-0.09938632	-0.46973157	0.48319121	0.20088175	-0.74521097	1.05415865	4.00419089	0.66411079	0.29107764	1.14580866	-0.03553525	-0.08929854	0.65700521	-0.35791264	-0.07276030	0.77127610	0.47048567	4.22001999	1.24656803	-0.18409881	0.06133725	0.15636799
6645	66.44000000	-0.12286405	-0.57053767	-0.08583204	-0.40887768	0.47664883	0.20588248	-0.53737637	1.20456635	4.14611763	0.56955221	0.25087240	1.12704367	-0.00849975	-0.04420012	0.66147424	-0.32348583	-0.05655311	0.74434773	0.55923870	4.15182317	1.16029118	-0.18783514	0.06371289	0.16813547
6646	66.45000000	-0.11493099	-0.59215394	-0.07188580	-0.32232543	0.47372499	0.20849850	-0.28328961	1.34681151	4.26923304	0.48924281	0.19511150	1.06165480	0.00911317	-0.02693214	0.64068086	-0.28136622	-0.03988183	0.73752537	0.60607155	4.00977278	1.04978141	-0.19350863	0.06626753	0.17485588
6647	66.46000000	-0.11265517	-0.60612161	-0.05833819	-0.22093664	0.45827299	0.20903586	0.05387693	1.45479512	4.32386556	0.39500457	0.12461876	0.97262843	0.05607238	0.00448563	0.64903722	-0.21990611	-0.02581875	0.72220405	0.56062171	3.85387967	0.93861234	-0.18783045	0.05831446	0.18813082
6648	66.47000000	-0.09943770	-0.60629698	-0.04058831	-0.10910722	0.44027482	0.20517048	0.43865775	1.55098033	4.28422641	0.27116860	0.02520050	0.86101594	0.13936271	0.02539697	0.68056682	-0.17699368	-0.03533504	0.70008915	0.42481227	3.75899232	0.86510666	-0.17598431	0.06519802	0.20033132
6649	66.48000000	-0.08540205	-0.60117645	-0.02370682	-0.00218154	0.41094991	0.21672422	0.65721946	1.66248467	4.20043981	0.11494359	-0.09805474	0.72592381	0.26062634	0.05762241	0.70302664	-0.12592824	-0.04673722	0.68355009	0.31437566	3.74506364	0.82083747	-0.18825210	0.06201977	0.22515571
6650	66.49000000	-0.06105559	-0.58612702	0.00160131	0.10554217	0.38197104	0.23082314	0.71356017	1.77053093	4.09331264	-0.02159618	-0.22256082	0.56289375	0.39659026	0.07498250	0.71568538	-0.05882110	-0.04861128	0.66714355	0.27528434	3.71304635	0.82010996	-0.19565443	0.05316727	0.26437823
6651	66.50000000	-0.04071175	-0.56029391	0.01780515	0.20605528	0.35623992	0.23479721	0.62078315	1.81833516	3.98157514	-0.11418576	-0.34350219	0.38174560	0.48124828	0.07881008	0.71337521	0.07104946	-0.06468076	0.65100124	0.26393878	3.66151397	0.85809452	-0.20707209	0.05646811	0.29501664
6652	66.51000000	-0.02243944	-0.53332627	0.03065301	0.29039351	0.31806304	0.23608233	0.32232969	1.82192860	3.91636201	-0.14519486	-0.44614158	0.18907329	0.53640019	0.08078560	0.73879974	0.22411963	-0.06673141	0.63415852	0.25206086	3.62403254	0.92273907	-0.20746061	0.05150183	0.33152394
6653	66.52000000	0.01270700	-0.49848646	0.05685928	0.37750502	0.27750603	0.22430061	-0.15832559	1.77991352	3.89124831	-0.12803557	-0.53042810	0.01703804	0.57924412	0.08050789	0.77412475	0.39130505	-0.04229108	0.62263988	0.26418539	3.53595546	0.96711676	-0.18094526	0.03545973	0.35468562
6654	66.53000000	0.04942455	-0.46829681	0.07754515	0.44733822	0.23507120	0.21364684	-0.60117896	1.68345670	3.82554020	-0.08467080	-0.59041123	-0.16415357	0.65006184	0.08312327	0.80938008	0.51612647	-0.04033953	0.60674318	0.28743986	3.38509542	0.94784439	-0.18959671	0.00492483	0.41441333
6655	66.54000000	0.09021735	-0.43389276	0.10007892	0.51308332	0.20647221	0.18472662	-0.92033006	1.51292688	3.69670108	-0.04224797	-0.60140667	-0.29191760	0.67861939	0.07725741	0.81764058	0.59054301	-0.02684645	0.58966729	0.35672419	3.22338743	0.87202963	-0.19489427	-0.01879355	0.47306793
6656	66.55000000	0.13698945	-0.40115368	0.13213186	0.56161058	0.16470441	0.17010744	-1.08505184	1.35754121	3.58292073	0.00318159	-0.53397911	-0.36465594	0.71444310	0.06502339	0.84064237	0.62656234	-0.02363059	0.56758392	0.44687690	3.07280862	0.77513704	-0.21182560	-0.05600801	0.55495041
6657	66.56000000	0.17231483	-0.36477945	0.16269572	0.60522491	0.13355506	0.13352770	-1.00642340	1.26569221	3.50982604	0.08617632	-0.40858093	-0.39964071	0.74292830	0.04614785	0.87934094	0.63621221	-0.02514752	0.53708869	0.51434151	2.90771570	0.71237336	-0.20334444	-0.07972382	0.59307845
6658	66.57000000	0.21890828	-0.33161049	0.19638516	0.62312984	0.10127339	0.12085204	-0.55750442	1.21605087	3.40534301	0.22419587	-0.25936233	-0.38357788	0.79394016	0.06263800	0.93478815	0.62205928	-0.02628794	0.51163059	0.40110129	2.70026555	0.65985397	-0.21422873	-0.12635308	0.63482700
6659	66.58000000	0.26269103	-0.29391210	0.23257909	0.61620745	0.07818354	0.10520310	-0.19450944	1.07533182	3.19034908	0.43517671	-0.12475755	-0.32638567	0.83335131	0.11143562	0.98037180	0.58973275	-0.02069229	0.48976731	0.12461773	2.45508951	0.59309589	-0.22544437	-0.18732921	0.66253786
6660	66.59000000	0.30418386	-0.25258902	0.27097877	0.60532816	0.03415050	0.07360219	-0.06632328	0.85522250	2.83493251	0.75338631	0.00596518	-0.23223976	0.75060992	0.09175481	1.01186941	0.53370279	0.00357049	0.48168600	-0.22677066	2.24884532	0.56708168	-0.20528668	-0.25245125	0.65935069
